<?xml version="1.0" encoding="utf-8"?>
<svg version="1.1" baseProfile="full" width="300" height="300" xmlns="http://www.w3.org/2000/svg">
<line x1="0" y1="300" x2="150" y2="0" stroke="black" />
<line x1="150" y1="0" x2="300" y2="300" stroke="black" />
<line x1="300" y1="300" x2="0" y2="300" stroke="black" />
<line x1="0" y1="300" x2="75" y2="150" stroke="black" />
<line x1="75" y1="150" x2="150" y2="300" stroke="black" />
<line x1="150" y1="300" x2="0" y2="300" stroke="black" />
<line x1="0" y1="300" x2="37" y2="225" stroke="black" />
<line x1="37" y1="225" x2="75" y2="300" stroke="black" />
<line x1="75" y1="300" x2="0" y2="300" stroke="black" />
<line x1="0" y1="300" x2="18" y2="262" stroke="black" />
<line x1="18" y1="262" x2="37" y2="300" stroke="black" />
<line x1="37" y1="300" x2="0" y2="300" stroke="black" />
<line x1="0" y1="300" x2="9" y2="281" stroke="black" />
<line x1="9" y1="281" x2="18" y2="300" stroke="black" />
<line x1="18" y1="300" x2="0" y2="300" stroke="black" />
<line x1="18" y1="262" x2="9" y2="281" stroke="black" />
<line x1="9" y1="281" x2="27" y2="281" stroke="black" />
<line x1="27" y1="281" x2="18" y2="262" stroke="black" />
<line x1="37" y1="300" x2="18" y2="300" stroke="black" />
<line x1="18" y1="300" x2="27" y2="281" stroke="black" />
<line x1="27" y1="281" x2="37" y2="300" stroke="black" />
<line x1="37" y1="225" x2="18" y2="262" stroke="black" />
<line x1="18" y1="262" x2="56" y2="262" stroke="black" />
<line x1="56" y1="262" x2="37" y2="225" stroke="black" />
<line x1="37" y1="225" x2="27" y2="243" stroke="black" />
<line x1="27" y1="243" x2="46" y2="243" stroke="black" />
<line x1="46" y1="243" x2="37" y2="225" stroke="black" />
<line x1="18" y1="262" x2="27" y2="243" stroke="black" />
<line x1="27" y1="243" x2="37" y2="262" stroke="black" />
<line x1="37" y1="262" x2="18" y2="262" stroke="black" />
<line x1="56" y1="262" x2="46" y2="243" stroke="black" />
<line x1="46" y1="243" x2="37" y2="262" stroke="black" />
<line x1="37" y1="262" x2="56" y2="262" stroke="black" />
<line x1="75" y1="300" x2="37" y2="300" stroke="black" />
<line x1="37" y1="300" x2="56" y2="262" stroke="black" />
<line x1="56" y1="262" x2="75" y2="300" stroke="black" />
<line x1="75" y1="300" x2="56" y2="300" stroke="black" />
<line x1="56" y1="300" x2="65" y2="281" stroke="black" />
<line x1="65" y1="281" x2="75" y2="300" stroke="black" />
<line x1="37" y1="300" x2="56" y2="300" stroke="black" />
<line x1="56" y1="300" x2="46" y2="281" stroke="black" />
<line x1="46" y1="281" x2="37" y2="300" stroke="black" />
<line x1="56" y1="262" x2="65" y2="281" stroke="black" />
<line x1="65" y1="281" x2="46" y2="281" stroke="black" />
<line x1="46" y1="281" x2="56" y2="262" stroke="black" />
<line x1="75" y1="150" x2="37" y2="225" stroke="black" />
<line x1="37" y1="225" x2="112" y2="225" stroke="black" />
<line x1="112" y1="225" x2="75" y2="150" stroke="black" />
<line x1="75" y1="150" x2="56" y2="187" stroke="black" />
<line x1="56" y1="187" x2="93" y2="187" stroke="black" />
<line x1="93" y1="187" x2="75" y2="150" stroke="black" />
<line x1="75" y1="150" x2="65" y2="168" stroke="black" />
<line x1="65" y1="168" x2="84" y2="168" stroke="black" />
<line x1="84" y1="168" x2="75" y2="150" stroke="black" />
<line x1="56" y1="187" x2="65" y2="168" stroke="black" />
<line x1="65" y1="168" x2="74" y2="187" stroke="black" />
<line x1="74" y1="187" x2="56" y2="187" stroke="black" />
<line x1="93" y1="187" x2="84" y2="168" stroke="black" />
<line x1="84" y1="168" x2="74" y2="187" stroke="black" />
<line x1="74" y1="187" x2="93" y2="187" stroke="black" />
<line x1="37" y1="225" x2="56" y2="187" stroke="black" />
<line x1="56" y1="187" x2="74" y2="225" stroke="black" />
<line x1="74" y1="225" x2="37" y2="225" stroke="black" />
<line x1="37" y1="225" x2="46" y2="206" stroke="black" />
<line x1="46" y1="206" x2="55" y2="225" stroke="black" />
<line x1="55" y1="225" x2="37" y2="225" stroke="black" />
<line x1="56" y1="187" x2="46" y2="206" stroke="black" />
<line x1="46" y1="206" x2="65" y2="206" stroke="black" />
<line x1="65" y1="206" x2="56" y2="187" stroke="black" />
<line x1="74" y1="225" x2="55" y2="225" stroke="black" />
<line x1="55" y1="225" x2="65" y2="206" stroke="black" />
<line x1="65" y1="206" x2="74" y2="225" stroke="black" />
<line x1="112" y1="225" x2="93" y2="187" stroke="black" />
<line x1="93" y1="187" x2="74" y2="225" stroke="black" />
<line x1="74" y1="225" x2="112" y2="225" stroke="black" />
<line x1="112" y1="225" x2="102" y2="206" stroke="black" />
<line x1="102" y1="206" x2="93" y2="225" stroke="black" />
<line x1="93" y1="225" x2="112" y2="225" stroke="black" />
<line x1="93" y1="187" x2="102" y2="206" stroke="black" />
<line x1="102" y1="206" x2="83" y2="206" stroke="black" />
<line x1="83" y1="206" x2="93" y2="187" stroke="black" />
<line x1="74" y1="225" x2="93" y2="225" stroke="black" />
<line x1="93" y1="225" x2="83" y2="206" stroke="black" />
<line x1="83" y1="206" x2="74" y2="225" stroke="black" />
<line x1="150" y1="300" x2="75" y2="300" stroke="black" />
<line x1="75" y1="300" x2="112" y2="225" stroke="black" />
<line x1="112" y1="225" x2="150" y2="300" stroke="black" />
<line x1="150" y1="300" x2="112" y2="300" stroke="black" />
<line x1="112" y1="300" x2="131" y2="262" stroke="black" />
<line x1="131" y1="262" x2="150" y2="300" stroke="black" />
<line x1="150" y1="300" x2="131" y2="300" stroke="black" />
<line x1="131" y1="300" x2="140" y2="281" stroke="black" />
<line x1="140" y1="281" x2="150" y2="300" stroke="black" />
<line x1="112" y1="300" x2="131" y2="300" stroke="black" />
<line x1="131" y1="300" x2="121" y2="281" stroke="black" />
<line x1="121" y1="281" x2="112" y2="300" stroke="black" />
<line x1="131" y1="262" x2="140" y2="281" stroke="black" />
<line x1="140" y1="281" x2="121" y2="281" stroke="black" />
<line x1="121" y1="281" x2="131" y2="262" stroke="black" />
<line x1="75" y1="300" x2="112" y2="300" stroke="black" />
<line x1="112" y1="300" x2="93" y2="262" stroke="black" />
<line x1="93" y1="262" x2="75" y2="300" stroke="black" />
<line x1="75" y1="300" x2="93" y2="300" stroke="black" />
<line x1="93" y1="300" x2="84" y2="281" stroke="black" />
<line x1="84" y1="281" x2="75" y2="300" stroke="black" />
<line x1="112" y1="300" x2="93" y2="300" stroke="black" />
<line x1="93" y1="300" x2="102" y2="281" stroke="black" />
<line x1="102" y1="281" x2="112" y2="300" stroke="black" />
<line x1="93" y1="262" x2="84" y2="281" stroke="black" />
<line x1="84" y1="281" x2="102" y2="281" stroke="black" />
<line x1="102" y1="281" x2="93" y2="262" stroke="black" />
<line x1="112" y1="225" x2="131" y2="262" stroke="black" />
<line x1="131" y1="262" x2="93" y2="262" stroke="black" />
<line x1="93" y1="262" x2="112" y2="225" stroke="black" />
<line x1="112" y1="225" x2="121" y2="243" stroke="black" />
<line x1="121" y1="243" x2="102" y2="243" stroke="black" />
<line x1="102" y1="243" x2="112" y2="225" stroke="black" />
<line x1="131" y1="262" x2="121" y2="243" stroke="black" />
<line x1="121" y1="243" x2="112" y2="262" stroke="black" />
<line x1="112" y1="262" x2="131" y2="262" stroke="black" />
<line x1="93" y1="262" x2="102" y2="243" stroke="black" />
<line x1="102" y1="243" x2="112" y2="262" stroke="black" />
<line x1="112" y1="262" x2="93" y2="262" stroke="black" />
<line x1="150" y1="0" x2="75" y2="150" stroke="black" />
<line x1="75" y1="150" x2="225" y2="150" stroke="black" />
<line x1="225" y1="150" x2="150" y2="0" stroke="black" />
<line x1="150" y1="0" x2="112" y2="75" stroke="black" />
<line x1="112" y1="75" x2="187" y2="75" stroke="black" />
<line x1="187" y1="75" x2="150" y2="0" stroke="black" />
<line x1="150" y1="0" x2="131" y2="37" stroke="black" />
<line x1="131" y1="37" x2="168" y2="37" stroke="black" />
<line x1="168" y1="37" x2="150" y2="0" stroke="black" />
<line x1="150" y1="0" x2="140" y2="18" stroke="black" />
<line x1="140" y1="18" x2="159" y2="18" stroke="black" />
<line x1="159" y1="18" x2="150" y2="0" stroke="black" />
<line x1="131" y1="37" x2="140" y2="18" stroke="black" />
<line x1="140" y1="18" x2="149" y2="37" stroke="black" />
<line x1="149" y1="37" x2="131" y2="37" stroke="black" />
<line x1="168" y1="37" x2="159" y2="18" stroke="black" />
<line x1="159" y1="18" x2="149" y2="37" stroke="black" />
<line x1="149" y1="37" x2="168" y2="37" stroke="black" />
<line x1="112" y1="75" x2="131" y2="37" stroke="black" />
<line x1="131" y1="37" x2="149" y2="75" stroke="black" />
<line x1="149" y1="75" x2="112" y2="75" stroke="black" />
<line x1="112" y1="75" x2="121" y2="56" stroke="black" />
<line x1="121" y1="56" x2="130" y2="75" stroke="black" />
<line x1="130" y1="75" x2="112" y2="75" stroke="black" />
<line x1="131" y1="37" x2="121" y2="56" stroke="black" />
<line x1="121" y1="56" x2="140" y2="56" stroke="black" />
<line x1="140" y1="56" x2="131" y2="37" stroke="black" />
<line x1="149" y1="75" x2="130" y2="75" stroke="black" />
<line x1="130" y1="75" x2="140" y2="56" stroke="black" />
<line x1="140" y1="56" x2="149" y2="75" stroke="black" />
<line x1="187" y1="75" x2="168" y2="37" stroke="black" />
<line x1="168" y1="37" x2="149" y2="75" stroke="black" />
<line x1="149" y1="75" x2="187" y2="75" stroke="black" />
<line x1="187" y1="75" x2="177" y2="56" stroke="black" />
<line x1="177" y1="56" x2="168" y2="75" stroke="black" />
<line x1="168" y1="75" x2="187" y2="75" stroke="black" />
<line x1="168" y1="37" x2="177" y2="56" stroke="black" />
<line x1="177" y1="56" x2="158" y2="56" stroke="black" />
<line x1="158" y1="56" x2="168" y2="37" stroke="black" />
<line x1="149" y1="75" x2="168" y2="75" stroke="black" />
<line x1="168" y1="75" x2="158" y2="56" stroke="black" />
<line x1="158" y1="56" x2="149" y2="75" stroke="black" />
<line x1="75" y1="150" x2="112" y2="75" stroke="black" />
<line x1="112" y1="75" x2="150" y2="150" stroke="black" />
<line x1="150" y1="150" x2="75" y2="150" stroke="black" />
<line x1="75" y1="150" x2="93" y2="112" stroke="black" />
<line x1="93" y1="112" x2="112" y2="150" stroke="black" />
<line x1="112" y1="150" x2="75" y2="150" stroke="black" />
<line x1="75" y1="150" x2="84" y2="131" stroke="black" />
<line x1="84" y1="131" x2="93" y2="150" stroke="black" />
<line x1="93" y1="150" x2="75" y2="150" stroke="black" />
<line x1="93" y1="112" x2="84" y2="131" stroke="black" />
<line x1="84" y1="131" x2="102" y2="131" stroke="black" />
<line x1="102" y1="131" x2="93" y2="112" stroke="black" />
<line x1="112" y1="150" x2="93" y2="150" stroke="black" />
<line x1="93" y1="150" x2="102" y2="131" stroke="black" />
<line x1="102" y1="131" x2="112" y2="150" stroke="black" />
<line x1="112" y1="75" x2="93" y2="112" stroke="black" />
<line x1="93" y1="112" x2="131" y2="112" stroke="black" />
<line x1="131" y1="112" x2="112" y2="75" stroke="black" />
<line x1="112" y1="75" x2="102" y2="93" stroke="black" />
<line x1="102" y1="93" x2="121" y2="93" stroke="black" />
<line x1="121" y1="93" x2="112" y2="75" stroke="black" />
<line x1="93" y1="112" x2="102" y2="93" stroke="black" />
<line x1="102" y1="93" x2="112" y2="112" stroke="black" />
<line x1="112" y1="112" x2="93" y2="112" stroke="black" />
<line x1="131" y1="112" x2="121" y2="93" stroke="black" />
<line x1="121" y1="93" x2="112" y2="112" stroke="black" />
<line x1="112" y1="112" x2="131" y2="112" stroke="black" />
<line x1="150" y1="150" x2="112" y2="150" stroke="black" />
<line x1="112" y1="150" x2="131" y2="112" stroke="black" />
<line x1="131" y1="112" x2="150" y2="150" stroke="black" />
<line x1="150" y1="150" x2="131" y2="150" stroke="black" />
<line x1="131" y1="150" x2="140" y2="131" stroke="black" />
<line x1="140" y1="131" x2="150" y2="150" stroke="black" />
<line x1="112" y1="150" x2="131" y2="150" stroke="black" />
<line x1="131" y1="150" x2="121" y2="131" stroke="black" />
<line x1="121" y1="131" x2="112" y2="150" stroke="black" />
<line x1="131" y1="112" x2="140" y2="131" stroke="black" />
<line x1="140" y1="131" x2="121" y2="131" stroke="black" />
<line x1="121" y1="131" x2="131" y2="112" stroke="black" />
<line x1="225" y1="150" x2="187" y2="75" stroke="black" />
<line x1="187" y1="75" x2="150" y2="150" stroke="black" />
<line x1="150" y1="150" x2="225" y2="150" stroke="black" />
<line x1="225" y1="150" x2="206" y2="112" stroke="black" />
<line x1="206" y1="112" x2="187" y2="150" stroke="black" />
<line x1="187" y1="150" x2="225" y2="150" stroke="black" />
<line x1="225" y1="150" x2="215" y2="131" stroke="black" />
<line x1="215" y1="131" x2="206" y2="150" stroke="black" />
<line x1="206" y1="150" x2="225" y2="150" stroke="black" />
<line x1="206" y1="112" x2="215" y2="131" stroke="black" />
<line x1="215" y1="131" x2="196" y2="131" stroke="black" />
<line x1="196" y1="131" x2="206" y2="112" stroke="black" />
<line x1="187" y1="150" x2="206" y2="150" stroke="black" />
<line x1="206" y1="150" x2="196" y2="131" stroke="black" />
<line x1="196" y1="131" x2="187" y2="150" stroke="black" />
<line x1="187" y1="75" x2="206" y2="112" stroke="black" />
<line x1="206" y1="112" x2="168" y2="112" stroke="black" />
<line x1="168" y1="112" x2="187" y2="75" stroke="black" />
<line x1="187" y1="75" x2="196" y2="93" stroke="black" />
<line x1="196" y1="93" x2="177" y2="93" stroke="black" />
<line x1="177" y1="93" x2="187" y2="75" stroke="black" />
<line x1="206" y1="112" x2="196" y2="93" stroke="black" />
<line x1="196" y1="93" x2="187" y2="112" stroke="black" />
<line x1="187" y1="112" x2="206" y2="112" stroke="black" />
<line x1="168" y1="112" x2="177" y2="93" stroke="black" />
<line x1="177" y1="93" x2="187" y2="112" stroke="black" />
<line x1="187" y1="112" x2="168" y2="112" stroke="black" />
<line x1="150" y1="150" x2="187" y2="150" stroke="black" />
<line x1="187" y1="150" x2="168" y2="112" stroke="black" />
<line x1="168" y1="112" x2="150" y2="150" stroke="black" />
<line x1="150" y1="150" x2="168" y2="150" stroke="black" />
<line x1="168" y1="150" x2="159" y2="131" stroke="black" />
<line x1="159" y1="131" x2="150" y2="150" stroke="black" />
<line x1="187" y1="150" x2="168" y2="150" stroke="black" />
<line x1="168" y1="150" x2="177" y2="131" stroke="black" />
<line x1="177" y1="131" x2="187" y2="150" stroke="black" />
<line x1="168" y1="112" x2="159" y2="131" stroke="black" />
<line x1="159" y1="131" x2="177" y2="131" stroke="black" />
<line x1="177" y1="131" x2="168" y2="112" stroke="black" />
<line x1="300" y1="300" x2="150" y2="300" stroke="black" />
<line x1="150" y1="300" x2="225" y2="150" stroke="black" />
<line x1="225" y1="150" x2="300" y2="300" stroke="black" />
<line x1="300" y1="300" x2="225" y2="300" stroke="black" />
<line x1="225" y1="300" x2="262" y2="225" stroke="black" />
<line x1="262" y1="225" x2="300" y2="300" stroke="black" />
<line x1="300" y1="300" x2="262" y2="300" stroke="black" />
<line x1="262" y1="300" x2="281" y2="262" stroke="black" />
<line x1="281" y1="262" x2="300" y2="300" stroke="black" />
<line x1="300" y1="300" x2="281" y2="300" stroke="black" />
<line x1="281" y1="300" x2="290" y2="281" stroke="black" />
<line x1="290" y1="281" x2="300" y2="300" stroke="black" />
<line x1="262" y1="300" x2="281" y2="300" stroke="black" />
<line x1="281" y1="300" x2="271" y2="281" stroke="black" />
<line x1="271" y1="281" x2="262" y2="300" stroke="black" />
<line x1="281" y1="262" x2="290" y2="281" stroke="black" />
<line x1="290" y1="281" x2="271" y2="281" stroke="black" />
<line x1="271" y1="281" x2="281" y2="262" stroke="black" />
<line x1="225" y1="300" x2="262" y2="300" stroke="black" />
<line x1="262" y1="300" x2="243" y2="262" stroke="black" />
<line x1="243" y1="262" x2="225" y2="300" stroke="black" />
<line x1="225" y1="300" x2="243" y2="300" stroke="black" />
<line x1="243" y1="300" x2="234" y2="281" stroke="black" />
<line x1="234" y1="281" x2="225" y2="300" stroke="black" />
<line x1="262" y1="300" x2="243" y2="300" stroke="black" />
<line x1="243" y1="300" x2="252" y2="281" stroke="black" />
<line x1="252" y1="281" x2="262" y2="300" stroke="black" />
<line x1="243" y1="262" x2="234" y2="281" stroke="black" />
<line x1="234" y1="281" x2="252" y2="281" stroke="black" />
<line x1="252" y1="281" x2="243" y2="262" stroke="black" />
<line x1="262" y1="225" x2="281" y2="262" stroke="black" />
<line x1="281" y1="262" x2="243" y2="262" stroke="black" />
<line x1="243" y1="262" x2="262" y2="225" stroke="black" />
<line x1="262" y1="225" x2="271" y2="243" stroke="black" />
<line x1="271" y1="243" x2="252" y2="243" stroke="black" />
<line x1="252" y1="243" x2="262" y2="225" stroke="black" />
<line x1="281" y1="262" x2="271" y2="243" stroke="black" />
<line x1="271" y1="243" x2="262" y2="262" stroke="black" />
<line x1="262" y1="262" x2="281" y2="262" stroke="black" />
<line x1="243" y1="262" x2="252" y2="243" stroke="black" />
<line x1="252" y1="243" x2="262" y2="262" stroke="black" />
<line x1="262" y1="262" x2="243" y2="262" stroke="black" />
<line x1="150" y1="300" x2="225" y2="300" stroke="black" />
<line x1="225" y1="300" x2="187" y2="225" stroke="black" />
<line x1="187" y1="225" x2="150" y2="300" stroke="black" />
<line x1="150" y1="300" x2="187" y2="300" stroke="black" />
<line x1="187" y1="300" x2="168" y2="262" stroke="black" />
<line x1="168" y1="262" x2="150" y2="300" stroke="black" />
<line x1="150" y1="300" x2="168" y2="300" stroke="black" />
<line x1="168" y1="300" x2="159" y2="281" stroke="black" />
<line x1="159" y1="281" x2="150" y2="300" stroke="black" />
<line x1="187" y1="300" x2="168" y2="300" stroke="black" />
<line x1="168" y1="300" x2="177" y2="281" stroke="black" />
<line x1="177" y1="281" x2="187" y2="300" stroke="black" />
<line x1="168" y1="262" x2="159" y2="281" stroke="black" />
<line x1="159" y1="281" x2="177" y2="281" stroke="black" />
<line x1="177" y1="281" x2="168" y2="262" stroke="black" />
<line x1="225" y1="300" x2="187" y2="300" stroke="black" />
<line x1="187" y1="300" x2="206" y2="262" stroke="black" />
<line x1="206" y1="262" x2="225" y2="300" stroke="black" />
<line x1="225" y1="300" x2="206" y2="300" stroke="black" />
<line x1="206" y1="300" x2="215" y2="281" stroke="black" />
<line x1="215" y1="281" x2="225" y2="300" stroke="black" />
<line x1="187" y1="300" x2="206" y2="300" stroke="black" />
<line x1="206" y1="300" x2="196" y2="281" stroke="black" />
<line x1="196" y1="281" x2="187" y2="300" stroke="black" />
<line x1="206" y1="262" x2="215" y2="281" stroke="black" />
<line x1="215" y1="281" x2="196" y2="281" stroke="black" />
<line x1="196" y1="281" x2="206" y2="262" stroke="black" />
<line x1="187" y1="225" x2="168" y2="262" stroke="black" />
<line x1="168" y1="262" x2="206" y2="262" stroke="black" />
<line x1="206" y1="262" x2="187" y2="225" stroke="black" />
<line x1="187" y1="225" x2="177" y2="243" stroke="black" />
<line x1="177" y1="243" x2="196" y2="243" stroke="black" />
<line x1="196" y1="243" x2="187" y2="225" stroke="black" />
<line x1="168" y1="262" x2="177" y2="243" stroke="black" />
<line x1="177" y1="243" x2="187" y2="262" stroke="black" />
<line x1="187" y1="262" x2="168" y2="262" stroke="black" />
<line x1="206" y1="262" x2="196" y2="243" stroke="black" />
<line x1="196" y1="243" x2="187" y2="262" stroke="black" />
<line x1="187" y1="262" x2="206" y2="262" stroke="black" />
<line x1="225" y1="150" x2="262" y2="225" stroke="black" />
<line x1="262" y1="225" x2="187" y2="225" stroke="black" />
<line x1="187" y1="225" x2="225" y2="150" stroke="black" />
<line x1="225" y1="150" x2="243" y2="187" stroke="black" />
<line x1="243" y1="187" x2="206" y2="187" stroke="black" />
<line x1="206" y1="187" x2="225" y2="150" stroke="black" />
<line x1="225" y1="150" x2="234" y2="168" stroke="black" />
<line x1="234" y1="168" x2="215" y2="168" stroke="black" />
<line x1="215" y1="168" x2="225" y2="150" stroke="black" />
<line x1="243" y1="187" x2="234" y2="168" stroke="black" />
<line x1="234" y1="168" x2="224" y2="187" stroke="black" />
<line x1="224" y1="187" x2="243" y2="187" stroke="black" />
<line x1="206" y1="187" x2="215" y2="168" stroke="black" />
<line x1="215" y1="168" x2="224" y2="187" stroke="black" />
<line x1="224" y1="187" x2="206" y2="187" stroke="black" />
<line x1="262" y1="225" x2="243" y2="187" stroke="black" />
<line x1="243" y1="187" x2="224" y2="225" stroke="black" />
<line x1="224" y1="225" x2="262" y2="225" stroke="black" />
<line x1="262" y1="225" x2="252" y2="206" stroke="black" />
<line x1="252" y1="206" x2="243" y2="225" stroke="black" />
<line x1="243" y1="225" x2="262" y2="225" stroke="black" />
<line x1="243" y1="187" x2="252" y2="206" stroke="black" />
<line x1="252" y1="206" x2="233" y2="206" stroke="black" />
<line x1="233" y1="206" x2="243" y2="187" stroke="black" />
<line x1="224" y1="225" x2="243" y2="225" stroke="black" />
<line x1="243" y1="225" x2="233" y2="206" stroke="black" />
<line x1="233" y1="206" x2="224" y2="225" stroke="black" />
<line x1="187" y1="225" x2="206" y2="187" stroke="black" />
<line x1="206" y1="187" x2="224" y2="225" stroke="black" />
<line x1="224" y1="225" x2="187" y2="225" stroke="black" />
<line x1="187" y1="225" x2="196" y2="206" stroke="black" />
<line x1="196" y1="206" x2="205" y2="225" stroke="black" />
<line x1="205" y1="225" x2="187" y2="225" stroke="black" />
<line x1="206" y1="187" x2="196" y2="206" stroke="black" />
<line x1="196" y1="206" x2="215" y2="206" stroke="black" />
<line x1="215" y1="206" x2="206" y2="187" stroke="black" />
<line x1="224" y1="225" x2="205" y2="225" stroke="black" />
<line x1="205" y1="225" x2="215" y2="206" stroke="black" />
<line x1="215" y1="206" x2="224" y2="225" stroke="black" />
</svg>
